 0
SECTION
 2
HEADER
 9
$ACADVER
 1
AC1009
 0
ENDSEC
 0
SECTION
 2
ENTITIES
 0
POLYLINE
 8
TITLE
 66
1
 70
1
 10
0.0
 20
0.0
 30
0.0
 0
VERTEX
 8
TITLE
 10
 -0.1000
 20
  0.1000
 30
0.0
 0
VERTEX
 8
TITLE
 10
  9.6000
 20
  0.1000
 30
0.0
 0
VERTEX
 8
TITLE
 10
  9.6000
 20
  7.3000
 30
0.0
 0
VERTEX
 8
TITLE
 10
 -0.1000
 20
  7.3000
 30
0.0
 0
SEQEND
 8
TITLE
 0
POLYLINE
 8
TITLE
 66
1
 70
1
 10
0.0
 20
0.0
 30
0.0
 0
VERTEX
 8
TITLE
 10
  0.0000
 20
  0.2000
 30
0.0
 0
VERTEX
 8
TITLE
 10
  9.5000
 20
  0.2000
 30
0.0
 0
VERTEX
 8
TITLE
 10
  9.5000
 20
  7.2000
 30
0.0
 0
VERTEX
 8
TITLE
 10
  0.0000
 20
  7.2000
 30
0.0
 0
SEQEND
 8
TITLE
 0
POLYLINE
 8
TITLE
 66
1
 10
0.0
 20
0.0
 30
0.0
 0
VERTEX
 8
TITLE
 10
  2.0600
 20
  0.2000
 30
0.0
 0
VERTEX
 8
TITLE
 10
  2.0600
 20
  0.1000
 30
0.0
 0
SEQEND
 8
TITLE
 0
POLYLINE
 8
TITLE
 66
1
 10
0.0
 20
0.0
 30
0.0
 0
VERTEX
 8
TITLE
 10
  2.0600
 20
  7.2000
 30
0.0
 0
VERTEX
 8
TITLE
 10
  2.0600
 20
  7.3000
 30
0.0
 0
SEQEND
 8
TITLE
 0
POLYLINE
 8
TITLE
 66
1
 10
0.0
 20
0.0
 30
0.0
 0
VERTEX
 8
TITLE
 10
  3.9200
 20
  0.2000
 30
0.0
 0
VERTEX
 8
TITLE
 10
  3.9200
 20
  0.1000
 30
0.0
 0
SEQEND
 8
TITLE
 0
POLYLINE
 8
TITLE
 66
1
 10
0.0
 20
0.0
 30
0.0
 0
VERTEX
 8
TITLE
 10
  3.9200
 20
  7.2000
 30
0.0
 0
VERTEX
 8
TITLE
 10
  3.9200
 20
  7.3000
 30
0.0
 0
SEQEND
 8
TITLE
 0
POLYLINE
 8
TITLE
 66
1
 10
0.0
 20
0.0
 30
0.0
 0
VERTEX
 8
TITLE
 10
  5.7800
 20
  0.2000
 30
0.0
 0
VERTEX
 8
TITLE
 10
  5.7800
 20
  0.1000
 30
0.0
 0
SEQEND
 8
TITLE
 0
POLYLINE
 8
TITLE
 66
1
 10
0.0
 20
0.0
 30
0.0
 0
VERTEX
 8
TITLE
 10
  5.7800
 20
  7.2000
 30
0.0
 0
VERTEX
 8
TITLE
 10
  5.7800
 20
  7.3000
 30
0.0
 0
SEQEND
 8
TITLE
 0
POLYLINE
 8
TITLE
 66
1
 10
0.0
 20
0.0
 30
0.0
 0
VERTEX
 8
TITLE
 10
  7.6400
 20
  0.2000
 30
0.0
 0
VERTEX
 8
TITLE
 10
  7.6400
 20
  0.1000
 30
0.0
 0
SEQEND
 8
TITLE
 0
POLYLINE
 8
TITLE
 66
1
 10
0.0
 20
0.0
 30
0.0
 0
VERTEX
 8
TITLE
 10
  7.6400
 20
  7.2000
 30
0.0
 0
VERTEX
 8
TITLE
 10
  7.6400
 20
  7.3000
 30
0.0
 0
SEQEND
 8
TITLE
 0
TEXT
 8
TITLE
 10
  1.1300
 20
  0.1200
 30
0.0
 40
  0.0500
 1
5
 0
TEXT
 8
TITLE
 10
  1.1300
 20
  7.2200
 30
0.0
 40
  0.0500
 1
5
 0
TEXT
 8
TITLE
 10
  2.9900
 20
  0.1200
 30
0.0
 40
  0.0500
 1
4
 0
TEXT
 8
TITLE
 10
  2.9900
 20
  7.2200
 30
0.0
 40
  0.0500
 1
4
 0
TEXT
 8
TITLE
 10
  4.8500
 20
  0.1200
 30
0.0
 40
  0.0500
 1
3
 0
TEXT
 8
TITLE
 10
  4.8500
 20
  7.2200
 30
0.0
 40
  0.0500
 1
3
 0
TEXT
 8
TITLE
 10
  6.7100
 20
  0.1200
 30
0.0
 40
  0.0500
 1
2
 0
TEXT
 8
TITLE
 10
  6.7100
 20
  7.2200
 30
0.0
 40
  0.0500
 1
2
 0
TEXT
 8
TITLE
 10
  8.5700
 20
  0.1200
 30
0.0
 40
  0.0500
 1
1
 0
TEXT
 8
TITLE
 10
  8.5700
 20
  7.2200
 30
0.0
 40
  0.0500
 1
1
 0
POLYLINE
 8
TITLE
 66
1
 10
0.0
 20
0.0
 30
0.0
 0
VERTEX
 8
TITLE
 10
 -0.1000
 20
  5.3000
 30
0.0
 0
VERTEX
 8
TITLE
 10
  0.0000
 20
  5.3000
 30
0.0
 0
SEQEND
 8
TITLE
 0
POLYLINE
 8
TITLE
 66
1
 10
0.0
 20
0.0
 30
0.0
 0
VERTEX
 8
TITLE
 10
  9.5000
 20
  5.3000
 30
0.0
 0
VERTEX
 8
TITLE
 10
  9.6000
 20
  5.3000
 30
0.0
 0
SEQEND
 8
TITLE
 0
SOLID
 8
TITLE
 10
  0.0000
 20
  3.6000
 30
0.0
 11
 -0.0500
 21
  3.6200
 31
0.0
 12
 -0.0500
 22
  3.5800
 32
0.0
 13
 -0.0500
 23
  3.6000
 33
0.0
 0
SOLID
 8
TITLE
 10
  9.5000
 20
  3.6000
 30
0.0
 11
  9.5500
 21
  3.6200
 31
0.0
 12
  9.5500
 22
  3.5800
 32
0.0
 13
  9.5500
 23
  3.6000
 33
0.0
 0
POLYLINE
 8
TITLE
 66
1
 10
0.0
 20
0.0
 30
0.0
 0
VERTEX
 8
TITLE
 10
 -0.1000
 20
  3.6000
 30
0.0
 0
VERTEX
 8
TITLE
 10
  0.0000
 20
  3.6000
 30
0.0
 0
SEQEND
 8
TITLE
 0
POLYLINE
 8
TITLE
 66
1
 10
0.0
 20
0.0
 30
0.0
 0
VERTEX
 8
TITLE
 10
  9.5000
 20
  3.6000
 30
0.0
 0
VERTEX
 8
TITLE
 10
  9.6000
 20
  3.6000
 30
0.0
 0
SEQEND
 8
TITLE
 0
SOLID
 8
TITLE
 10
  0.0000
 20
  3.6000
 30
0.0
 11
 -0.0500
 21
  3.6200
 31
0.0
 12
 -0.0500
 22
  3.5800
 32
0.0
 13
 -0.0500
 23
  3.6000
 33
0.0
 0
SOLID
 8
TITLE
 10
  9.5000
 20
  3.6000
 30
0.0
 11
  9.5500
 21
  3.6200
 31
0.0
 12
  9.5500
 22
  3.5800
 32
0.0
 13
  9.5500
 23
  3.6000
 33
0.0
 0
POLYLINE
 8
TITLE
 66
1
 10
0.0
 20
0.0
 30
0.0
 0
VERTEX
 8
TITLE
 10
 -0.1000
 20
  1.9000
 30
0.0
 0
VERTEX
 8
TITLE
 10
  0.0000
 20
  1.9000
 30
0.0
 0
SEQEND
 8
TITLE
 0
POLYLINE
 8
TITLE
 66
1
 10
0.0
 20
0.0
 30
0.0
 0
VERTEX
 8
TITLE
 10
  9.5000
 20
  1.9000
 30
0.0
 0
VERTEX
 8
TITLE
 10
  9.6000
 20
  1.9000
 30
0.0
 0
SEQEND
 8
TITLE
 0
SOLID
 8
TITLE
 10
  0.0000
 20
  3.6000
 30
0.0
 11
 -0.0500
 21
  3.6200
 31
0.0
 12
 -0.0500
 22
  3.5800
 32
0.0
 13
 -0.0500
 23
  3.6000
 33
0.0
 0
SOLID
 8
TITLE
 10
  9.5000
 20
  3.6000
 30
0.0
 11
  9.5500
 21
  3.6200
 31
0.0
 12
  9.5500
 22
  3.5800
 32
0.0
 13
  9.5500
 23
  3.6000
 33
0.0
 0
TEXT
 8
TITLE
 10
 -0.0800
 20
  6.1500
 30
0.0
 40
  0.0500
 1
D
 0
TEXT
 8
TITLE
 10
  9.5200
 20
  6.1500
 30
0.0
 40
  0.0500
 1
D
 0
TEXT
 8
TITLE
 10
 -0.0800
 20
  4.4500
 30
0.0
 40
  0.0500
 1
C
 0
TEXT
 8
TITLE
 10
  9.5200
 20
  4.4500
 30
0.0
 40
  0.0500
 1
C
 0
TEXT
 8
TITLE
 10
 -0.0800
 20
  2.7500
 30
0.0
 40
  0.0500
 1
B
 0
TEXT
 8
TITLE
 10
  9.5200
 20
  2.7500
 30
0.0
 40
  0.0500
 1
B
 0
TEXT
 8
TITLE
 10
 -0.0800
 20
  1.0500
 30
0.0
 40
  0.0500
 1
A
 0
TEXT
 8
TITLE
 10
  9.5200
 20
  1.0500
 30
0.0
 40
  0.0500
 1
A
 0
TEXT
 8
TITLE
 10
  6.3000
 20
  0.4186
 30
0.0
 40
  0.0514
 1
<Doc>
 0
TEXT
 8
TITLE
 10
  9.3000
 20
  0.4186
 30
0.0
 40
  0.0514
 1
<RevCode>
 0
TEXT
 8
TITLE
 10
  6.3000
 20
  0.7186
 30
0.0
 40
  0.0514
 1
<Title>
 0
TEXT
 8
TITLE
 10
  6.0000
 20
  0.4186
 30
0.0
 40
  0.0514
 1
A
 0
TEXT
 8
TITLE
 10
  8.4000
 20
  0.2186
 30
0.0
 40
  0.0514
 1
1
 0
TEXT
 8
TITLE
 10
  9.0000
 20
  0.2186
 30
0.0
 40
  0.0514
 1
1
 0
TEXT
 8
TITLE
 10
  6.4200
 20
  0.2186
 30
0.0
 40
  0.0514
 1
Tuesday, April 17, 2012
 0
TEXT
 8
PARTTEXT
 10
  5.9000
 20
  0.8186
 30
0.0
 40
  0.0514
 1
Title
 0
TEXT
 8
PARTTEXT
 10
  5.9000
 20
  0.5186
 30
0.0
 40
  0.0514
 1
Size
 0
TEXT
 8
PARTTEXT
 10
  6.3000
 20
  0.5186
 30
0.0
 40
  0.0514
 1
Document Number
 0
TEXT
 8
PARTTEXT
 10
  9.2000
 20
  0.5186
 30
0.0
 40
  0.0514
 1
Rev
 0
TEXT
 8
PARTTEXT
 10
  5.9000
 20
  0.2186
 30
0.0
 40
  0.0514
 1
Date:
 0
TEXT
 8
PARTTEXT
 10
  7.9000
 20
  0.2186
 30
0.0
 40
  0.0514
 1
Sheet
 0
POLYLINE
 8
TITLE
 66
1
 70
1
 10
0.0
 20
0.0
 30
0.0
 0
VERTEX
 8
TITLE
 10
  5.9000
 20
  1.1000
 30
0.0
 0
VERTEX
 8
TITLE
 10
  9.5000
 20
  1.1000
 30
0.0
 0
VERTEX
 8
TITLE
 10
  9.5000
 20
  0.9000
 30
0.0
 0
VERTEX
 8
TITLE
 10
  5.9000
 20
  0.9000
 30
0.0
 0
SEQEND
 8
TITLE
 0
POLYLINE
 8
TITLE
 66
1
 70
1
 10
0.0
 20
0.0
 30
0.0
 0
VERTEX
 8
TITLE
 10
  5.9000
 20
  0.9000
 30
0.0
 0
VERTEX
 8
TITLE
 10
  9.5000
 20
  0.9000
 30
0.0
 0
VERTEX
 8
TITLE
 10
  9.5000
 20
  0.6000
 30
0.0
 0
VERTEX
 8
TITLE
 10
  5.9000
 20
  0.6000
 30
0.0
 0
SEQEND
 8
TITLE
 0
POLYLINE
 8
TITLE
 66
1
 70
1
 10
0.0
 20
0.0
 30
0.0
 0
VERTEX
 8
TITLE
 10
  5.9000
 20
  0.6000
 30
0.0
 0
VERTEX
 8
TITLE
 10
  6.2000
 20
  0.6000
 30
0.0
 0
VERTEX
 8
TITLE
 10
  6.2000
 20
  0.3000
 30
0.0
 0
VERTEX
 8
TITLE
 10
  5.9000
 20
  0.3000
 30
0.0
 0
SEQEND
 8
TITLE
 0
POLYLINE
 8
TITLE
 66
1
 70
1
 10
0.0
 20
0.0
 30
0.0
 0
VERTEX
 8
TITLE
 10
  6.2000
 20
  0.6000
 30
0.0
 0
VERTEX
 8
TITLE
 10
  9.2000
 20
  0.6000
 30
0.0
 0
VERTEX
 8
TITLE
 10
  9.2000
 20
  0.3000
 30
0.0
 0
VERTEX
 8
TITLE
 10
  6.2000
 20
  0.3000
 30
0.0
 0
SEQEND
 8
TITLE
 0
POLYLINE
 8
TITLE
 66
1
 70
1
 10
0.0
 20
0.0
 30
0.0
 0
VERTEX
 8
TITLE
 10
  9.2000
 20
  0.6000
 30
0.0
 0
VERTEX
 8
TITLE
 10
  9.5000
 20
  0.6000
 30
0.0
 0
VERTEX
 8
TITLE
 10
  9.5000
 20
  0.3000
 30
0.0
 0
VERTEX
 8
TITLE
 10
  9.2000
 20
  0.3000
 30
0.0
 0
SEQEND
 8
TITLE
 0
POLYLINE
 8
TITLE
 66
1
 70
1
 10
0.0
 20
0.0
 30
0.0
 0
VERTEX
 8
TITLE
 10
  5.9000
 20
  0.3000
 30
0.0
 0
VERTEX
 8
TITLE
 10
  7.9000
 20
  0.3000
 30
0.0
 0
VERTEX
 8
TITLE
 10
  7.9000
 20
  0.2000
 30
0.0
 0
VERTEX
 8
TITLE
 10
  5.9000
 20
  0.2000
 30
0.0
 0
SEQEND
 8
TITLE
 0
POLYLINE
 8
TITLE
 66
1
 70
1
 10
0.0
 20
0.0
 30
0.0
 0
VERTEX
 8
TITLE
 10
  7.9000
 20
  0.3000
 30
0.0
 0
VERTEX
 8
TITLE
 10
  9.5000
 20
  0.3000
 30
0.0
 0
VERTEX
 8
TITLE
 10
  9.5000
 20
  0.2000
 30
0.0
 0
VERTEX
 8
TITLE
 10
  7.9000
 20
  0.2000
 30
0.0
 0
SEQEND
 8
TITLE
 0
TEXT
 8
PARTTEXT
 10
  8.7000
 20
  0.2186
 30
0.0
 40
  0.0514
 1
of
 0
TEXT
 8
PARTTEXT
 10
  4.4600
 20
  6.0186
 30
0.0
 40
  0.0514
 1
D4
 0
LINE
 8
PARTS
 10
  4.2900
 20
  5.8500
 30
0.0
 11
  4.3900
 21
  5.8500
 31
0.0
 0
LINE
 8
PARTS
 10
  4.8900
 20
  5.8500
 30
0.0
 11
  4.7900
 21
  5.8500
 31
0.0
 0
POLYLINE
 8
PARTS
 66
1
 10
0.0
 20
0.0
 30
0.0
 0
VERTEX
 8
PARTS
 10
  4.5900
 20
  5.9200
 30
0.0
 0
VERTEX
 8
PARTS
 10
  4.5900
 20
  5.7800
 30
0.0
 0
SEQEND
 8
PARTS
 0
POLYLINE
 8
PARTS
 66
1
 10
0.0
 20
0.0
 30
0.0
 0
VERTEX
 8
PARTS
 10
  4.3900
 20
  5.8500
 30
0.0
 0
VERTEX
 8
PARTS
 10
  4.4900
 20
  5.8500
 30
0.0
 0
SEQEND
 8
PARTS
 0
POLYLINE
 8
PARTS
 66
1
 10
0.0
 20
0.0
 30
0.0
 0
VERTEX
 8
PARTS
 10
  4.5900
 20
  5.8500
 30
0.0
 0
VERTEX
 8
PARTS
 10
  4.7900
 20
  5.8500
 30
0.0
 0
SEQEND
 8
PARTS
 0
POLYLINE
 8
PARTS
 66
1
 70
1
 10
0.0
 20
0.0
 30
0.0
 0
VERTEX
 8
PARTS
 10
  4.5900
 20
  5.8500
 30
0.0
 0
VERTEX
 8
PARTS
 10
  4.5900
 20
  5.8500
 30
0.0
 0
VERTEX
 8
PARTS
 10
  4.4900
 20
  5.7800
 30
0.0
 0
VERTEX
 8
PARTS
 10
  4.4900
 20
  5.9200
 30
0.0
 0
VERTEX
 8
PARTS
 10
  4.5900
 20
  5.8500
 30
0.0
 0
SEQEND
 8
PARTS
 0
POLYLINE
 8
PARTS
 66
1
 70
1
 10
0.0
 20
0.0
 30
0.0
 0
VERTEX
 8
PARTS
 10
  4.7100
 20
  5.9300
 30
0.0
 0
VERTEX
 8
PARTS
 10
  4.7100
 20
  5.9300
 30
0.0
 0
VERTEX
 8
PARTS
 10
  4.7500
 20
  5.9500
 30
0.0
 0
VERTEX
 8
PARTS
 10
  4.7300
 20
  5.9100
 30
0.0
 0
VERTEX
 8
PARTS
 10
  4.7100
 20
  5.9300
 30
0.0
 0
SEQEND
 8
PARTS
 0
POLYLINE
 8
PARTS
 66
1
 70
1
 10
0.0
 20
0.0
 30
0.0
 0
VERTEX
 8
PARTS
 10
  4.6500
 20
  5.9300
 30
0.0
 0
VERTEX
 8
PARTS
 10
  4.6500
 20
  5.9300
 30
0.0
 0
VERTEX
 8
PARTS
 10
  4.6900
 20
  5.9500
 30
0.0
 0
VERTEX
 8
PARTS
 10
  4.6700
 20
  5.9100
 30
0.0
 0
VERTEX
 8
PARTS
 10
  4.6500
 20
  5.9300
 30
0.0
 0
SEQEND
 8
PARTS
 0
POLYLINE
 8
PARTS
 66
1
 10
0.0
 20
0.0
 30
0.0
 0
VERTEX
 8
PARTS
 10
  4.6800
 20
  5.9400
 30
0.0
 0
VERTEX
 8
PARTS
 10
  4.6200
 20
  5.8800
 30
0.0
 0
SEQEND
 8
PARTS
 0
POLYLINE
 8
PARTS
 66
1
 10
0.0
 20
0.0
 30
0.0
 0
VERTEX
 8
PARTS
 10
  4.7400
 20
  5.9400
 30
0.0
 0
VERTEX
 8
PARTS
 10
  4.6800
 20
  5.8800
 30
0.0
 0
SEQEND
 8
PARTS
 0
TEXT
 8
PARTTEXT
 10
  4.4700
 20
  5.0486
 30
0.0
 40
  0.0514
 1
D1
 0
LINE
 8
PARTS
 10
  4.3000
 20
  4.8800
 30
0.0
 11
  4.4000
 21
  4.8800
 31
0.0
 0
LINE
 8
PARTS
 10
  4.9000
 20
  4.8800
 30
0.0
 11
  4.8000
 21
  4.8800
 31
0.0
 0
POLYLINE
 8
PARTS
 66
1
 10
0.0
 20
0.0
 30
0.0
 0
VERTEX
 8
PARTS
 10
  4.6000
 20
  4.9500
 30
0.0
 0
VERTEX
 8
PARTS
 10
  4.6000
 20
  4.8100
 30
0.0
 0
SEQEND
 8
PARTS
 0
POLYLINE
 8
PARTS
 66
1
 10
0.0
 20
0.0
 30
0.0
 0
VERTEX
 8
PARTS
 10
  4.4000
 20
  4.8800
 30
0.0
 0
VERTEX
 8
PARTS
 10
  4.5000
 20
  4.8800
 30
0.0
 0
SEQEND
 8
PARTS
 0
POLYLINE
 8
PARTS
 66
1
 10
0.0
 20
0.0
 30
0.0
 0
VERTEX
 8
PARTS
 10
  4.6000
 20
  4.8800
 30
0.0
 0
VERTEX
 8
PARTS
 10
  4.8000
 20
  4.8800
 30
0.0
 0
SEQEND
 8
PARTS
 0
POLYLINE
 8
PARTS
 66
1
 70
1
 10
0.0
 20
0.0
 30
0.0
 0
VERTEX
 8
PARTS
 10
  4.6000
 20
  4.8800
 30
0.0
 0
VERTEX
 8
PARTS
 10
  4.6000
 20
  4.8800
 30
0.0
 0
VERTEX
 8
PARTS
 10
  4.5000
 20
  4.8100
 30
0.0
 0
VERTEX
 8
PARTS
 10
  4.5000
 20
  4.9500
 30
0.0
 0
VERTEX
 8
PARTS
 10
  4.6000
 20
  4.8800
 30
0.0
 0
SEQEND
 8
PARTS
 0
POLYLINE
 8
PARTS
 66
1
 70
1
 10
0.0
 20
0.0
 30
0.0
 0
VERTEX
 8
PARTS
 10
  4.7200
 20
  4.9600
 30
0.0
 0
VERTEX
 8
PARTS
 10
  4.7200
 20
  4.9600
 30
0.0
 0
VERTEX
 8
PARTS
 10
  4.7600
 20
  4.9800
 30
0.0
 0
VERTEX
 8
PARTS
 10
  4.7400
 20
  4.9400
 30
0.0
 0
VERTEX
 8
PARTS
 10
  4.7200
 20
  4.9600
 30
0.0
 0
SEQEND
 8
PARTS
 0
POLYLINE
 8
PARTS
 66
1
 70
1
 10
0.0
 20
0.0
 30
0.0
 0
VERTEX
 8
PARTS
 10
  4.6600
 20
  4.9600
 30
0.0
 0
VERTEX
 8
PARTS
 10
  4.6600
 20
  4.9600
 30
0.0
 0
VERTEX
 8
PARTS
 10
  4.7000
 20
  4.9800
 30
0.0
 0
VERTEX
 8
PARTS
 10
  4.6800
 20
  4.9400
 30
0.0
 0
VERTEX
 8
PARTS
 10
  4.6600
 20
  4.9600
 30
0.0
 0
SEQEND
 8
PARTS
 0
POLYLINE
 8
PARTS
 66
1
 10
0.0
 20
0.0
 30
0.0
 0
VERTEX
 8
PARTS
 10
  4.6900
 20
  4.9700
 30
0.0
 0
VERTEX
 8
PARTS
 10
  4.6300
 20
  4.9100
 30
0.0
 0
SEQEND
 8
PARTS
 0
POLYLINE
 8
PARTS
 66
1
 10
0.0
 20
0.0
 30
0.0
 0
VERTEX
 8
PARTS
 10
  4.7500
 20
  4.9700
 30
0.0
 0
VERTEX
 8
PARTS
 10
  4.6900
 20
  4.9100
 30
0.0
 0
SEQEND
 8
PARTS
 0
TEXT
 8
PARTTEXT
 10
  4.4600
 20
  6.3586
 30
0.0
 40
  0.0514
 1
D5
 0
LINE
 8
PARTS
 10
  4.2900
 20
  6.1900
 30
0.0
 11
  4.3900
 21
  6.1900
 31
0.0
 0
LINE
 8
PARTS
 10
  4.8900
 20
  6.1900
 30
0.0
 11
  4.7900
 21
  6.1900
 31
0.0
 0
POLYLINE
 8
PARTS
 66
1
 10
0.0
 20
0.0
 30
0.0
 0
VERTEX
 8
PARTS
 10
  4.5900
 20
  6.2600
 30
0.0
 0
VERTEX
 8
PARTS
 10
  4.5900
 20
  6.1200
 30
0.0
 0
SEQEND
 8
PARTS
 0
POLYLINE
 8
PARTS
 66
1
 10
0.0
 20
0.0
 30
0.0
 0
VERTEX
 8
PARTS
 10
  4.3900
 20
  6.1900
 30
0.0
 0
VERTEX
 8
PARTS
 10
  4.4900
 20
  6.1900
 30
0.0
 0
SEQEND
 8
PARTS
 0
POLYLINE
 8
PARTS
 66
1
 10
0.0
 20
0.0
 30
0.0
 0
VERTEX
 8
PARTS
 10
  4.5900
 20
  6.1900
 30
0.0
 0
VERTEX
 8
PARTS
 10
  4.7900
 20
  6.1900
 30
0.0
 0
SEQEND
 8
PARTS
 0
POLYLINE
 8
PARTS
 66
1
 70
1
 10
0.0
 20
0.0
 30
0.0
 0
VERTEX
 8
PARTS
 10
  4.5900
 20
  6.1900
 30
0.0
 0
VERTEX
 8
PARTS
 10
  4.5900
 20
  6.1900
 30
0.0
 0
VERTEX
 8
PARTS
 10
  4.4900
 20
  6.1200
 30
0.0
 0
VERTEX
 8
PARTS
 10
  4.4900
 20
  6.2600
 30
0.0
 0
VERTEX
 8
PARTS
 10
  4.5900
 20
  6.1900
 30
0.0
 0
SEQEND
 8
PARTS
 0
POLYLINE
 8
PARTS
 66
1
 70
1
 10
0.0
 20
0.0
 30
0.0
 0
VERTEX
 8
PARTS
 10
  4.7100
 20
  6.2700
 30
0.0
 0
VERTEX
 8
PARTS
 10
  4.7100
 20
  6.2700
 30
0.0
 0
VERTEX
 8
PARTS
 10
  4.7500
 20
  6.2900
 30
0.0
 0
VERTEX
 8
PARTS
 10
  4.7300
 20
  6.2500
 30
0.0
 0
VERTEX
 8
PARTS
 10
  4.7100
 20
  6.2700
 30
0.0
 0
SEQEND
 8
PARTS
 0
POLYLINE
 8
PARTS
 66
1
 70
1
 10
0.0
 20
0.0
 30
0.0
 0
VERTEX
 8
PARTS
 10
  4.6500
 20
  6.2700
 30
0.0
 0
VERTEX
 8
PARTS
 10
  4.6500
 20
  6.2700
 30
0.0
 0
VERTEX
 8
PARTS
 10
  4.6900
 20
  6.2900
 30
0.0
 0
VERTEX
 8
PARTS
 10
  4.6700
 20
  6.2500
 30
0.0
 0
VERTEX
 8
PARTS
 10
  4.6500
 20
  6.2700
 30
0.0
 0
SEQEND
 8
PARTS
 0
POLYLINE
 8
PARTS
 66
1
 10
0.0
 20
0.0
 30
0.0
 0
VERTEX
 8
PARTS
 10
  4.6800
 20
  6.2800
 30
0.0
 0
VERTEX
 8
PARTS
 10
  4.6200
 20
  6.2200
 30
0.0
 0
SEQEND
 8
PARTS
 0
POLYLINE
 8
PARTS
 66
1
 10
0.0
 20
0.0
 30
0.0
 0
VERTEX
 8
PARTS
 10
  4.7400
 20
  6.2800
 30
0.0
 0
VERTEX
 8
PARTS
 10
  4.6800
 20
  6.2200
 30
0.0
 0
SEQEND
 8
PARTS
 0
TEXT
 8
PARTTEXT
 10
  2.8300
 20
  5.5786
 30
0.0
 40
  0.0514
 1
V1
 0
TEXT
 8
PARTTEXT
 10
  2.4600
 20
  5.4586
 30
0.0
 40
  0.0514
 1
0Vdc
 0
LINE
 8
PARTS
 10
  2.7400
 20
  5.2400
 30
0.0
 11
  2.7400
 21
  5.3400
 31
0.0
 0
POLYLINE
 8
PARTS
 66
1
 10
0.0
 20
0.0
 30
0.0
 0
VERTEX
 8
PARTS
 10
  2.6900
 20
  5.4700
 30
0.0
 0
VERTEX
 8
PARTS
 10
  2.7900
 20
  5.4700
 30
0.0
 0
SEQEND
 8
PARTS
 0
POLYLINE
 8
PARTS
 66
1
 10
0.0
 20
0.0
 30
0.0
 0
VERTEX
 8
PARTS
 10
  2.8400
 20
  5.4400
 30
0.0
 0
VERTEX
 8
PARTS
 10
  2.6400
 20
  5.4400
 30
0.0
 0
SEQEND
 8
PARTS
 0
POLYLINE
 8
PARTS
 66
1
 10
0.0
 20
0.0
 30
0.0
 0
VERTEX
 8
PARTS
 10
  2.6900
 20
  5.4000
 30
0.0
 0
VERTEX
 8
PARTS
 10
  2.7900
 20
  5.4000
 30
0.0
 0
SEQEND
 8
PARTS
 0
POLYLINE
 8
PARTS
 66
1
 10
0.0
 20
0.0
 30
0.0
 0
VERTEX
 8
PARTS
 10
  2.7400
 20
  5.5500
 30
0.0
 0
VERTEX
 8
PARTS
 10
  2.7400
 20
  5.5000
 30
0.0
 0
SEQEND
 8
PARTS
 0
POLYLINE
 8
PARTS
 66
1
 10
0.0
 20
0.0
 30
0.0
 0
VERTEX
 8
PARTS
 10
  2.7400
 20
  5.3400
 30
0.0
 0
VERTEX
 8
PARTS
 10
  2.7400
 20
  5.4000
 30
0.0
 0
SEQEND
 8
PARTS
 0
POLYLINE
 8
PARTS
 66
1
 10
0.0
 20
0.0
 30
0.0
 0
VERTEX
 8
PARTS
 10
  2.6400
 20
  5.5000
 30
0.0
 0
VERTEX
 8
PARTS
 10
  2.8400
 20
  5.5000
 30
0.0
 0
SEQEND
 8
PARTS
 0
POLYLINE
 8
PARTS
 66
1
 10
0.0
 20
0.0
 30
0.0
 0
VERTEX
 8
PARTS
 10
  2.7400
 20
  5.5400
 30
0.0
 0
VERTEX
 8
PARTS
 10
  2.7400
 20
  5.6400
 30
0.0
 0
SEQEND
 8
PARTS
 0
POLYLINE
 8
PARTS
 66
1
 10
0.0
 20
0.0
 30
0.0
 0
VERTEX
 8
PARTS
 10
  2.6700
 20
  5.5600
 30
0.0
 0
VERTEX
 8
PARTS
 10
  2.6700
 20
  5.5400
 30
0.0
 0
SEQEND
 8
PARTS
 0
POLYLINE
 8
PARTS
 66
1
 10
0.0
 20
0.0
 30
0.0
 0
VERTEX
 8
PARTS
 10
  2.6600
 20
  5.5500
 30
0.0
 0
VERTEX
 8
PARTS
 10
  2.6800
 20
  5.5500
 30
0.0
 0
SEQEND
 8
PARTS
 0
POLYLINE
 8
PARTS
 66
1
 10
0.0
 20
0.0
 30
0.0
 0
VERTEX
 8
PARTS
 10
  2.6600
 20
  5.3600
 30
0.0
 0
VERTEX
 8
PARTS
 10
  2.6800
 20
  5.3600
 30
0.0
 0
SEQEND
 8
PARTS
 0
TEXT
 8
PARTTEXT
 10
  3.2600
 20
  4.7686
 30
0.0
 40
  0.0514
 1
R1
 0
TEXT
 8
PARTTEXT
 10
  3.2600
 20
  4.6686
 30
0.0
 40
  0.0514
 1
R
 0
LINE
 8
PARTS
 10
  3.1600
 20
  4.9500
 30
0.0
 11
  3.1600
 21
  4.8500
 31
0.0
 0
LINE
 8
PARTS
 10
  3.1600
 20
  4.4500
 30
0.0
 11
  3.1600
 21
  4.5500
 31
0.0
 0
POLYLINE
 8
PARTS
 66
1
 10
0.0
 20
0.0
 30
0.0
 0
VERTEX
 8
PARTS
 10
  3.1600
 20
  4.8500
 30
0.0
 0
VERTEX
 8
PARTS
 10
  3.1900
 20
  4.8200
 30
0.0
 0
SEQEND
 8
PARTS
 0
POLYLINE
 8
PARTS
 66
1
 10
0.0
 20
0.0
 30
0.0
 0
VERTEX
 8
PARTS
 10
  3.1900
 20
  4.8200
 30
0.0
 0
VERTEX
 8
PARTS
 10
  3.1300
 20
  4.7600
 30
0.0
 0
SEQEND
 8
PARTS
 0
POLYLINE
 8
PARTS
 66
1
 10
0.0
 20
0.0
 30
0.0
 0
VERTEX
 8
PARTS
 10
  3.1300
 20
  4.7600
 30
0.0
 0
VERTEX
 8
PARTS
 10
  3.1900
 20
  4.7000
 30
0.0
 0
SEQEND
 8
PARTS
 0
POLYLINE
 8
PARTS
 66
1
 10
0.0
 20
0.0
 30
0.0
 0
VERTEX
 8
PARTS
 10
  3.1900
 20
  4.7000
 30
0.0
 0
VERTEX
 8
PARTS
 10
  3.1300
 20
  4.6400
 30
0.0
 0
SEQEND
 8
PARTS
 0
POLYLINE
 8
PARTS
 66
1
 10
0.0
 20
0.0
 30
0.0
 0
VERTEX
 8
PARTS
 10
  3.1300
 20
  4.6400
 30
0.0
 0
VERTEX
 8
PARTS
 10
  3.1900
 20
  4.5800
 30
0.0
 0
SEQEND
 8
PARTS
 0
POLYLINE
 8
PARTS
 66
1
 10
0.0
 20
0.0
 30
0.0
 0
VERTEX
 8
PARTS
 10
  3.1900
 20
  4.5800
 30
0.0
 0
VERTEX
 8
PARTS
 10
  3.1600
 20
  4.5500
 30
0.0
 0
SEQEND
 8
PARTS
 0
TEXT
 8
PARTTEXT
 10
  4.4700
 20
  5.3686
 30
0.0
 40
  0.0514
 1
D2
 0
LINE
 8
PARTS
 10
  4.3000
 20
  5.2000
 30
0.0
 11
  4.4000
 21
  5.2000
 31
0.0
 0
LINE
 8
PARTS
 10
  4.9000
 20
  5.2000
 30
0.0
 11
  4.8000
 21
  5.2000
 31
0.0
 0
POLYLINE
 8
PARTS
 66
1
 10
0.0
 20
0.0
 30
0.0
 0
VERTEX
 8
PARTS
 10
  4.6000
 20
  5.2700
 30
0.0
 0
VERTEX
 8
PARTS
 10
  4.6000
 20
  5.1300
 30
0.0
 0
SEQEND
 8
PARTS
 0
POLYLINE
 8
PARTS
 66
1
 10
0.0
 20
0.0
 30
0.0
 0
VERTEX
 8
PARTS
 10
  4.4000
 20
  5.2000
 30
0.0
 0
VERTEX
 8
PARTS
 10
  4.5000
 20
  5.2000
 30
0.0
 0
SEQEND
 8
PARTS
 0
POLYLINE
 8
PARTS
 66
1
 10
0.0
 20
0.0
 30
0.0
 0
VERTEX
 8
PARTS
 10
  4.6000
 20
  5.2000
 30
0.0
 0
VERTEX
 8
PARTS
 10
  4.8000
 20
  5.2000
 30
0.0
 0
SEQEND
 8
PARTS
 0
POLYLINE
 8
PARTS
 66
1
 70
1
 10
0.0
 20
0.0
 30
0.0
 0
VERTEX
 8
PARTS
 10
  4.6000
 20
  5.2000
 30
0.0
 0
VERTEX
 8
PARTS
 10
  4.6000
 20
  5.2000
 30
0.0
 0
VERTEX
 8
PARTS
 10
  4.5000
 20
  5.1300
 30
0.0
 0
VERTEX
 8
PARTS
 10
  4.5000
 20
  5.2700
 30
0.0
 0
VERTEX
 8
PARTS
 10
  4.6000
 20
  5.2000
 30
0.0
 0
SEQEND
 8
PARTS
 0
POLYLINE
 8
PARTS
 66
1
 70
1
 10
0.0
 20
0.0
 30
0.0
 0
VERTEX
 8
PARTS
 10
  4.7200
 20
  5.2800
 30
0.0
 0
VERTEX
 8
PARTS
 10
  4.7200
 20
  5.2800
 30
0.0
 0
VERTEX
 8
PARTS
 10
  4.7600
 20
  5.3000
 30
0.0
 0
VERTEX
 8
PARTS
 10
  4.7400
 20
  5.2600
 30
0.0
 0
VERTEX
 8
PARTS
 10
  4.7200
 20
  5.2800
 30
0.0
 0
SEQEND
 8
PARTS
 0
POLYLINE
 8
PARTS
 66
1
 70
1
 10
0.0
 20
0.0
 30
0.0
 0
VERTEX
 8
PARTS
 10
  4.6600
 20
  5.2800
 30
0.0
 0
VERTEX
 8
PARTS
 10
  4.6600
 20
  5.2800
 30
0.0
 0
VERTEX
 8
PARTS
 10
  4.7000
 20
  5.3000
 30
0.0
 0
VERTEX
 8
PARTS
 10
  4.6800
 20
  5.2600
 30
0.0
 0
VERTEX
 8
PARTS
 10
  4.6600
 20
  5.2800
 30
0.0
 0
SEQEND
 8
PARTS
 0
POLYLINE
 8
PARTS
 66
1
 10
0.0
 20
0.0
 30
0.0
 0
VERTEX
 8
PARTS
 10
  4.6900
 20
  5.2900
 30
0.0
 0
VERTEX
 8
PARTS
 10
  4.6300
 20
  5.2300
 30
0.0
 0
SEQEND
 8
PARTS
 0
POLYLINE
 8
PARTS
 66
1
 10
0.0
 20
0.0
 30
0.0
 0
VERTEX
 8
PARTS
 10
  4.7500
 20
  5.2900
 30
0.0
 0
VERTEX
 8
PARTS
 10
  4.6900
 20
  5.2300
 30
0.0
 0
SEQEND
 8
PARTS
 0
TEXT
 8
PARTTEXT
 10
  4.5600
 20
  4.2086
 30
0.0
 40
  0.0514
 1
SW1
 0
TEXT
 8
PARTTEXT
 10
  4.5600
 20
  3.7086
 30
0.0
 40
  0.0514
 1
SENS59145-SPST
 0
CIRCLE
 8
PARTS
 10
  4.5300
 20
  3.9900
 30
0.0
 40
  0.0300
 0
LINE
 8
PARTS
 10
  4.2600
 20
  3.9900
 30
0.0
 11
  4.5000
 21
  3.9900
 31
0.0
 0
CIRCLE
 8
PARTS
 10
  4.7900
 20
  3.9900
 30
0.0
 40
  0.0300
 0
LINE
 8
PARTS
 10
  5.0600
 20
  3.9900
 30
0.0
 11
  4.8200
 21
  3.9900
 31
0.0
 0
POLYLINE
 8
PARTS
 66
1
 10
0.0
 20
0.0
 30
0.0
 0
VERTEX
 8
PARTS
 10
  4.5600
 20
  3.9900
 30
0.0
 0
VERTEX
 8
PARTS
 10
  4.7600
 20
  4.0900
 30
0.0
 0
SEQEND
 8
PARTS
 0
TEXT
 8
PARTTEXT
 10
  4.4600
 20
  5.6986
 30
0.0
 40
  0.0514
 1
D3
 0
LINE
 8
PARTS
 10
  4.2900
 20
  5.5300
 30
0.0
 11
  4.3900
 21
  5.5300
 31
0.0
 0
LINE
 8
PARTS
 10
  4.8900
 20
  5.5300
 30
0.0
 11
  4.7900
 21
  5.5300
 31
0.0
 0
POLYLINE
 8
PARTS
 66
1
 10
0.0
 20
0.0
 30
0.0
 0
VERTEX
 8
PARTS
 10
  4.5900
 20
  5.6000
 30
0.0
 0
VERTEX
 8
PARTS
 10
  4.5900
 20
  5.4600
 30
0.0
 0
SEQEND
 8
PARTS
 0
POLYLINE
 8
PARTS
 66
1
 10
0.0
 20
0.0
 30
0.0
 0
VERTEX
 8
PARTS
 10
  4.3900
 20
  5.5300
 30
0.0
 0
VERTEX
 8
PARTS
 10
  4.4900
 20
  5.5300
 30
0.0
 0
SEQEND
 8
PARTS
 0
POLYLINE
 8
PARTS
 66
1
 10
0.0
 20
0.0
 30
0.0
 0
VERTEX
 8
PARTS
 10
  4.5900
 20
  5.5300
 30
0.0
 0
VERTEX
 8
PARTS
 10
  4.7900
 20
  5.5300
 30
0.0
 0
SEQEND
 8
PARTS
 0
POLYLINE
 8
PARTS
 66
1
 70
1
 10
0.0
 20
0.0
 30
0.0
 0
VERTEX
 8
PARTS
 10
  4.5900
 20
  5.5300
 30
0.0
 0
VERTEX
 8
PARTS
 10
  4.5900
 20
  5.5300
 30
0.0
 0
VERTEX
 8
PARTS
 10
  4.4900
 20
  5.4600
 30
0.0
 0
VERTEX
 8
PARTS
 10
  4.4900
 20
  5.6000
 30
0.0
 0
VERTEX
 8
PARTS
 10
  4.5900
 20
  5.5300
 30
0.0
 0
SEQEND
 8
PARTS
 0
POLYLINE
 8
PARTS
 66
1
 70
1
 10
0.0
 20
0.0
 30
0.0
 0
VERTEX
 8
PARTS
 10
  4.7100
 20
  5.6100
 30
0.0
 0
VERTEX
 8
PARTS
 10
  4.7100
 20
  5.6100
 30
0.0
 0
VERTEX
 8
PARTS
 10
  4.7500
 20
  5.6300
 30
0.0
 0
VERTEX
 8
PARTS
 10
  4.7300
 20
  5.5900
 30
0.0
 0
VERTEX
 8
PARTS
 10
  4.7100
 20
  5.6100
 30
0.0
 0
SEQEND
 8
PARTS
 0
POLYLINE
 8
PARTS
 66
1
 70
1
 10
0.0
 20
0.0
 30
0.0
 0
VERTEX
 8
PARTS
 10
  4.6500
 20
  5.6100
 30
0.0
 0
VERTEX
 8
PARTS
 10
  4.6500
 20
  5.6100
 30
0.0
 0
VERTEX
 8
PARTS
 10
  4.6900
 20
  5.6300
 30
0.0
 0
VERTEX
 8
PARTS
 10
  4.6700
 20
  5.5900
 30
0.0
 0
VERTEX
 8
PARTS
 10
  4.6500
 20
  5.6100
 30
0.0
 0
SEQEND
 8
PARTS
 0
POLYLINE
 8
PARTS
 66
1
 10
0.0
 20
0.0
 30
0.0
 0
VERTEX
 8
PARTS
 10
  4.6800
 20
  5.6200
 30
0.0
 0
VERTEX
 8
PARTS
 10
  4.6200
 20
  5.5600
 30
0.0
 0
SEQEND
 8
PARTS
 0
POLYLINE
 8
PARTS
 66
1
 10
0.0
 20
0.0
 30
0.0
 0
VERTEX
 8
PARTS
 10
  4.7400
 20
  5.6200
 30
0.0
 0
VERTEX
 8
PARTS
 10
  4.6800
 20
  5.5600
 30
0.0
 0
SEQEND
 8
PARTS
 0
TEXT
 8
PARTTEXT
 10
  3.6800
 20
  3.4086
 30
0.0
 40
  0.0514
 1
SW2
 0
TEXT
 8
PARTTEXT
 10
  3.6800
 20
  2.9086
 30
0.0
 40
  0.0514
 1
SW PUSHBUTTON
 0
LINE
 8
PARTS
 10
  3.5800
 20
  3.1900
 30
0.0
 11
  3.6800
 21
  3.1900
 31
0.0
 0
LINE
 8
PARTS
 10
  4.0800
 20
  3.1900
 30
0.0
 11
  3.9800
 21
  3.1900
 31
0.0
 0
POLYLINE
 8
PARTS
 66
1
 10
0.0
 20
0.0
 30
0.0
 0
VERTEX
 8
PARTS
 10
  3.6800
 20
  3.2400
 30
0.0
 0
VERTEX
 8
PARTS
 10
  3.9800
 20
  3.2400
 30
0.0
 0
SEQEND
 8
PARTS
 0
POLYLINE
 8
PARTS
 66
1
 10
0.0
 20
0.0
 30
0.0
 0
VERTEX
 8
PARTS
 10
  3.9800
 20
  3.2400
 30
0.0
 0
VERTEX
 8
PARTS
 10
  3.9800
 20
  3.2600
 30
0.0
 0
SEQEND
 8
PARTS
 0
POLYLINE
 8
PARTS
 66
1
 10
0.0
 20
0.0
 30
0.0
 0
VERTEX
 8
PARTS
 10
  3.9800
 20
  3.2600
 30
0.0
 0
VERTEX
 8
PARTS
 10
  3.8600
 20
  3.2600
 30
0.0
 0
SEQEND
 8
PARTS
 0
POLYLINE
 8
PARTS
 66
1
 10
0.0
 20
0.0
 30
0.0
 0
VERTEX
 8
PARTS
 10
  3.8600
 20
  3.2600
 30
0.0
 0
VERTEX
 8
PARTS
 10
  3.8600
 20
  3.2900
 30
0.0
 0
SEQEND
 8
PARTS
 0
POLYLINE
 8
PARTS
 66
1
 10
0.0
 20
0.0
 30
0.0
 0
VERTEX
 8
PARTS
 10
  3.8600
 20
  3.2900
 30
0.0
 0
VERTEX
 8
PARTS
 10
  3.8000
 20
  3.2900
 30
0.0
 0
SEQEND
 8
PARTS
 0
POLYLINE
 8
PARTS
 66
1
 10
0.0
 20
0.0
 30
0.0
 0
VERTEX
 8
PARTS
 10
  3.8000
 20
  3.2900
 30
0.0
 0
VERTEX
 8
PARTS
 10
  3.8000
 20
  3.2600
 30
0.0
 0
SEQEND
 8
PARTS
 0
POLYLINE
 8
PARTS
 66
1
 10
0.0
 20
0.0
 30
0.0
 0
VERTEX
 8
PARTS
 10
  3.8000
 20
  3.2600
 30
0.0
 0
VERTEX
 8
PARTS
 10
  3.6800
 20
  3.2600
 30
0.0
 0
SEQEND
 8
PARTS
 0
POLYLINE
 8
PARTS
 66
1
 70
1
 10
0.0
 20
0.0
 30
0.0
 0
VERTEX
 8
PARTS
 10
  3.7400
 20
  3.1900
 30
0.0
 42
  0.0985
 0
VERTEX
 8
PARTS
 10
  3.7377
 20
  3.2015
 30
0.0
 42
  0.0985
 0
VERTEX
 8
PARTS
 10
  3.7312
 20
  3.2112
 30
0.0
 42
  0.0985
 0
VERTEX
 8
PARTS
 10
  3.7215
 20
  3.2177
 30
0.0
 42
  0.0985
 0
VERTEX
 8
PARTS
 10
  3.7100
 20
  3.2200
 30
0.0
 42
  0.0985
 0
VERTEX
 8
PARTS
 10
  3.6985
 20
  3.2177
 30
0.0
 42
  0.0985
 0
VERTEX
 8
PARTS
 10
  3.6888
 20
  3.2112
 30
0.0
 42
  0.0985
 0
VERTEX
 8
PARTS
 10
  3.6823
 20
  3.2015
 30
0.0
 42
  0.0985
 0
VERTEX
 8
PARTS
 10
  3.6800
 20
  3.1900
 30
0.0
 42
  0.0985
 0
VERTEX
 8
PARTS
 10
  3.6823
 20
  3.1785
 30
0.0
 42
  0.0985
 0
VERTEX
 8
PARTS
 10
  3.6888
 20
  3.1688
 30
0.0
 42
  0.0985
 0
VERTEX
 8
PARTS
 10
  3.6985
 20
  3.1623
 30
0.0
 42
  0.0985
 0
VERTEX
 8
PARTS
 10
  3.7100
 20
  3.1600
 30
0.0
 42
  0.0985
 0
VERTEX
 8
PARTS
 10
  3.7215
 20
  3.1623
 30
0.0
 42
  0.0985
 0
VERTEX
 8
PARTS
 10
  3.7312
 20
  3.1688
 30
0.0
 42
  0.0985
 0
VERTEX
 8
PARTS
 10
  3.7377
 20
  3.1785
 30
0.0
 42
  0.0985
 0
SEQEND
 8
PARTS
 0
POLYLINE
 8
PARTS
 66
1
 70
1
 10
0.0
 20
0.0
 30
0.0
 0
VERTEX
 8
PARTS
 10
  3.9800
 20
  3.1900
 30
0.0
 42
  0.0985
 0
VERTEX
 8
PARTS
 10
  3.9777
 20
  3.2015
 30
0.0
 42
  0.0985
 0
VERTEX
 8
PARTS
 10
  3.9712
 20
  3.2112
 30
0.0
 42
  0.0985
 0
VERTEX
 8
PARTS
 10
  3.9615
 20
  3.2177
 30
0.0
 42
  0.0985
 0
VERTEX
 8
PARTS
 10
  3.9500
 20
  3.2200
 30
0.0
 42
  0.0985
 0
VERTEX
 8
PARTS
 10
  3.9385
 20
  3.2177
 30
0.0
 42
  0.0985
 0
VERTEX
 8
PARTS
 10
  3.9288
 20
  3.2112
 30
0.0
 42
  0.0985
 0
VERTEX
 8
PARTS
 10
  3.9223
 20
  3.2015
 30
0.0
 42
  0.0985
 0
VERTEX
 8
PARTS
 10
  3.9200
 20
  3.1900
 30
0.0
 42
  0.0985
 0
VERTEX
 8
PARTS
 10
  3.9223
 20
  3.1785
 30
0.0
 42
  0.0985
 0
VERTEX
 8
PARTS
 10
  3.9288
 20
  3.1688
 30
0.0
 42
  0.0985
 0
VERTEX
 8
PARTS
 10
  3.9385
 20
  3.1623
 30
0.0
 42
  0.0985
 0
VERTEX
 8
PARTS
 10
  3.9500
 20
  3.1600
 30
0.0
 42
  0.0985
 0
VERTEX
 8
PARTS
 10
  3.9615
 20
  3.1623
 30
0.0
 42
  0.0985
 0
VERTEX
 8
PARTS
 10
  3.9712
 20
  3.1688
 30
0.0
 42
  0.0985
 0
VERTEX
 8
PARTS
 10
  3.9777
 20
  3.1785
 30
0.0
 42
  0.0985
 0
SEQEND
 8
PARTS
 0
POLYLINE
 8
PARTS
 66
1
 10
0.0
 20
0.0
 30
0.0
 0
VERTEX
 8
PARTS
 10
  3.6800
 20
  3.2400
 30
0.0
 0
VERTEX
 8
PARTS
 10
  3.6800
 20
  3.2600
 30
0.0
 0
SEQEND
 8
PARTS
 0
ENDSEC
 0
EOF
